<svg id="Layer_1" data-name="Layer 1" xmlns="http://www.w3.org/2000/svg" viewBox="0 0 124.08 123.51"><defs><style>.cls-1{fill:#fff;}.cls-1,.cls-3{fill-rule:evenodd;}.cls-2{fill:#999;}.cls-3{fill:#e60123;}</style></defs><title>pinterest-app</title><path class="cls-1" d="M28.35.6H95.73a27.83,27.83,0,0,1,27.75,27.75V95.17a27.83,27.83,0,0,1-27.75,27.74H28.35A27.83,27.83,0,0,1,.6,95.17V28.35A27.83,27.83,0,0,1,28.35.6Z"/><path class="cls-2" d="M28.35,0H95.73a28.44,28.44,0,0,1,28.35,28.35V95.17a28.42,28.42,0,0,1-28.35,28.34H28.35A28.42,28.42,0,0,1,0,95.17V28.35A28.44,28.44,0,0,1,28.35,0ZM95.73,1.2H28.35A27.21,27.21,0,0,0,1.2,28.35V95.17a27.21,27.21,0,0,0,27.15,27.14H95.73a27.21,27.21,0,0,0,27.15-27.14V28.35A27.21,27.21,0,0,0,95.73,1.2Z"/><path class="cls-3" d="M62,13.11A48.65,48.65,0,1,1,13.39,61.76,48.65,48.65,0,0,1,62,13.11Z"/><path class="cls-1" d="M47,108c-.85-.27-1.69-.57-2.52-.89l-.08-.7c-.42-3.82-.8-9.68.17-13.85.88-3.78,5.67-24,5.67-24a17.73,17.73,0,0,1-1.42-7.17c0-6.74,3.86-11.74,8.73-11.74,4.15,0,6.12,3.08,6.12,6.78,0,4.13-2.64,10.32-4,16.07-1.16,4.81,2.39,8.73,7.14,8.73C75.4,81.25,82,72.18,82,59.11c0-11.58-8.3-19.64-20.16-19.64C48.09,39.47,40,49.79,40,60.44a18.84,18.84,0,0,0,3.61,11,1.45,1.45,0,0,1,.33,1.4c-.38,1.54-1.21,4.79-1.35,5.48-.21.9-.71,1.11-1.61.66-6-2.8-9.8-11.62-9.8-18.69,0-15.23,11.05-29.23,31.91-29.23C79.86,31.07,92.88,43,92.88,59,92.88,75.65,82.4,89,67.83,89c-4.86,0-9.49-2.54-11.06-5.55L53.76,95A32,32,0,0,1,47,108l0,0Z"/></svg>